<?xml version="1.0" standalone="no"?>
<!DOCTYPE svg PUBLIC "-//W3C//DTD SVG 20010904//EN"
 "http://www.w3.org/TR/2001/REC-SVG-20010904/DTD/svg10.dtd">
<svg version="1.0" xmlns="http://www.w3.org/2000/svg"
 width="200px" height="100px" viewBox="0 0 576.000000 225.000000"
 preserveAspectRatio="xMidYMid meet">

<g transform="translate(0.000000,225.000000) scale(0.100000,-0.100000)"
fill="#000000" stroke="none">
<path d="M2469 2110 c-86 -35 -293 -136 -399 -194 -215 -119 -416 -258 -615
-425 -95 -79 -398 -381 -391 -389 3 -2 31 16 63 40 214 164 618 406 917 548
283 135 641 271 819 310 31 7 56 15 54 17 -3 3 -397 114 -400 112 -1 0 -23 -9
-48 -19z" fill="#3C50E0"/>
<path d="M3175 1980 c-715 -181 -1378 -468 -1957 -846 -121 -79 -379 -266
-374 -271 1 -1 40 17 86 41 181 94 520 240 794 342 767 287 1542 480 2175 542
l174 17 -324 114 c-178 63 -328 115 -334 117 -5 1 -113 -24 -240 -56z" fill="#3C50E0"/>
<path d="M4435 1719 c-1042 -60 -2056 -310 -3053 -753 -219 -97 -574 -268
-568 -273 2 -2 25 6 52 18 91 39 408 161 624 239 1057 383 1916 577 2795 631
259 16 936 1 934 -20 0 -3 -35 -31 -77 -62 l-77 -57 -360 -11 c-513 -17 -1115
-51 -1150 -67 -11 -4 93 1 310 17 77 5 365 12 640 15 l500 5 -31 -28 c-17 -15
-81 -70 -142 -122 -126 -105 -315 -297 -382 -385 -40 -53 -46 -57 -74 -52 -17
3 -116 14 -221 26 -746 79 -1313 62 -1798 -52 -101 -24 -109 -33 -16 -19 269
43 839 63 1184 42 292 -18 760 -77 916 -116 23 -6 31 1 78 64 120 162 287 308
746 654 323 243 373 282 365 290 -24 22 -888 34 -1195 16z" fill="#2FABE1"/>
<path d="M3483 1353 c9 -2 25 -2 35 0 9 3 1 5 -18 5 -19 0 -27 -2 -17 -5z" fill="#2FABE1"/>
<path d="M3408 1343 c7 -3 16 -2 19 1 4 3 -2 6 -13 5 -11 0 -14 -3 -6 -6z" fill="#2FABE1"/>
</g>
</svg>
